# vtk DataFile Version 3.0
Decimate Polyline curved open polyline
ASCII
DATASET POLYDATA
POINTS 151 float
0 0 0.35
0.1 0.0882754 0.3496913
0.2 0.1749141 0.3487659
0.3 0.2583335 0.3472254
0.4 0.3370579 0.3450724
0.5 0.4097663 0.3423108
0.6 0.4753359 0.3389455
0.7 0.5328779 0.3349823
0.8 0.5817648 0.3304284
0.9 0.6216488 0.3252916
1 0.6524702 0.3195811
1.1 0.674455 0.313307
1.2 0.6881031 0.3064802
1.3 0.6941662 0.299113
1.4 0.693617 0.2912181
1.5 0.6876108 0.2828096
1.6 0.67744 0.2739023
1.7 0.6644849 0.264512
1.8 0.6501607 0.2546551
1.9 0.6358634 0.244349
2 0.6229175 0.233612
2.1 0.6125255 0.2224629
2.2 0.6057223 0.2109215
2.3 0.6033362 0.1990081
2.4 0.6059574 0.1867437
2.5 0.6139147 0.1741499
2.6 0.6272631 0.1612489
2.7 0.6457802 0.1480636
2.8 0.6689738 0.1346171
2.9 0.696099 0.1209331
3 0.7261845 0.1070359
3.1 0.7580678 0.0929499
3.2 0.7904373 0.0787
3.3 0.82188 0.0643112
3.4 0.8509327 0.049809
3.5 0.8761362 0.035219
3.6 0.8960889 0.0205669
3.7 0.9094986 0.0058784
3.8 0.915231 -0.0088204
3.9 0.912352 -0.0235036
4 0.9001643 -0.0381454
4.1 0.8782341 -0.0527199
4.2 0.8464099 -0.0672014
4.3 0.8048307 -0.0815644
4.4 0.7539239 -0.0957835
4.5 0.6943931 -0.1098337
4.6 0.6271966 -0.1236902
4.7 0.5535158 -0.1373285
4.8 0.4747171 -0.1507246
4.9 0.3923064 -0.1638549
5 0.3078786 -0.1766961
5.1 0.2230648 -0.1892258
5.2 0.1394775 -0.2014216
5.3 0.0586571 -0.2132623
5.4 -0.017979 -0.2247267
5.5 -0.0891831 -0.2357949
5.6 -0.1539176 -0.2464471
5.7 -0.2113875 -0.2566647
5.8 -0.2610646 -0.2664296
5.9 -0.3027014 -0.2757245
6 -0.3363361 -0.2845332
6.1 -0.362286 -0.29284
6.2 -0.3811314 -0.3006304
6.3 -0.3936908 -0.3078905
6.4 -0.400986 -0.3146075
6.5 -0.4042017 -0.3207697
6.6 -0.4046379 -0.3263661
6.7 -0.4036591 -0.3313869
6.8 -0.4026411 -0.3358232
6.9 -0.4029171 -0.3396672
7 -0.405726 -0.3429121
7.1 -0.4121642 -0.3455522
7.2 -0.4231421 -0.3475829
7.3 -0.4393484 -0.3490005
7.4 -0.4612215 -0.3498025
7.5 -0.4889309 -0.3499876
7.6 -0.5223684 -0.3495554
7.7 -0.5611488 -0.3485067
7.8 -0.604622 -0.3468433
7.9 -0.6518932 -0.3445682
8 -0.7018541 -0.3416853
8.1 -0.7532201 -0.3381998
8.2 -0.8045756 -0.3341178
8.3 -0.8544235 -0.3294465
8.4 -0.9012378 -0.3241941
8.5 -0.9435178 -0.31837
8.6 -0.9798418 -0.3119843
8.7 -1.0089177 -0.3050484
8.8 -1.0296294 -0.2975744
8.9 -1.0410775 -0.2895756
9 -1.0426119 -0.2810661
9.1 -1.033856 -0.2720608
9.2 -1.0147211 -0.2625757
9.3 -0.985411 -0.2526274
9.4 -0.946416 -0.2422336
9.5 -0.8984971 -0.2314126
9.6 -0.8426603 -0.2201834
9.7 -0.7801229 -0.2085659
9.8 -0.7122717 -0.1965805
9.9 -0.6406161 -0.1842484
10 -0.5667363 -0.1715913
10.1 -0.4922296 -0.1586316
10.2 -0.418656 -0.1453921
10.3 -0.3474856 -0.1318961
10.4 -0.2800492 -0.1181676
10.5 -0.2174939 -0.1042306
10.6 -0.160746 -0.0901098
10.7 -0.1104817 -0.07583
10.8 -0.0671065 -0.0614165
10.9 -0.0307451 -0.0468947
11 -0.0012415 -0.0322902
11.1 0.0218316 -0.0176287
11.2 0.0391521 -0.0029361
11.3 0.0516202 0.0117616
11.4 0.0603213 0.0264386
11.5 0.0664818 0.041069
11.6 0.071421 0.055627
11.7 0.0764983 0.0700868
11.8 0.0830602 0.084423
11.9 0.0923868 0.0986103
12 0.1056413 0.1126237
12.1 0.1238237 0.1264385
12.2 0.1477302 0.1400302
12.3 0.1779201 0.153375
12.4 0.2146915 0.1664492
12.5 0.2580665 0.1792299
12.6 0.3077859 0.1916945
12.7 0.3633151 0.203821
12.8 0.4238594 0.2155879
12.9 0.4883885 0.2269747
13 0.555671 0.2379611
13.1 0.6243146 0.2485278
13.2 0.6928133 0.2586562
13.3 0.7595992 0.2683284
13.4 0.8230955 0.2775273
13.5 0.8817712 0.2862367
13.6 0.9341937 0.2944413
13.7 0.9790784 0.3021265
13.8 1.0153332 0.3092789
13.9 1.0420961 0.3158858
14 1.0587648 0.3219356
14.1 1.0650177 0.3274175
14.2 1.060824 0.332322
14.3 1.0464447 0.3366403
14.4 1.0224227 0.3403649
14.5 0.9895634 0.3434892
14.6 0.9489053 0.3460076
14.7 0.901684 0.3479158
14.8 0.8492874 0.3492104
14.9 0.7932075 0.349889
15 0.7349873 0.3499505
LINES 1 152
151 0 1 2 3 4 5 6 7 8 9 10 11 12 13 14 15 16 17 18 19 20 21 22 23 24 25 26 27 28 29 30 31 32 33 34 35 36 37 38 39 40 41 42 43 44 45 46 47 48 49 50 51 52 53 54 55 56 57 58 59 60 61 62 63 64 65 66 67 68 69 70 71 72 73 74 75 76 77 78 79 80 81 82 83 84 85 86 87 88 89 90 91 92 93 94 95 96 97 98 99 100 101 102 103 104 105 106 107 108 109 110 111 112 113 114 115 116 117 118 119 120 121 122 123 124 125 126 127 128 129 130 131 132 133 134 135 136 137 138 139 140 141 142 143 144 145 146 147 148 149 150
POINT_DATA 151
SCALARS OriginalPointId int 1
LOOKUP_TABLE default
0
1
2
3
4
5
6
7
8
9
10
11
12
13
14
15
16
17
18
19
20
21
22
23
24
25
26
27
28
29
30
31
32
33
34
35
36
37
38
39
40
41
42
43
44
45
46
47
48
49
50
51
52
53
54
55
56
57
58
59
60
61
62
63
64
65
66
67
68
69
70
71
72
73
74
75
76
77
78
79
80
81
82
83
84
85
86
87
88
89
90
91
92
93
94
95
96
97
98
99
100
101
102
103
104
105
106
107
108
109
110
111
112
113
114
115
116
117
118
119
120
121
122
123
124
125
126
127
128
129
130
131
132
133
134
135
136
137
138
139
140
141
142
143
144
145
146
147
148
149
150
SCALARS CurveParameter float 1
LOOKUP_TABLE default
0
0.0066667
0.0133333
0.02
0.0266667
0.0333333
0.04
0.0466667
0.0533333
0.06
0.0666667
0.0733333
0.08
0.0866667
0.0933333
0.1
0.1066667
0.1133333
0.12
0.1266667
0.1333333
0.14
0.1466667
0.1533333
0.16
0.1666667
0.1733333
0.18
0.1866667
0.1933333
0.2
0.2066667
0.2133333
0.22
0.2266667
0.2333333
0.24
0.2466667
0.2533333
0.26
0.2666667
0.2733333
0.28
0.2866667
0.2933333
0.3
0.3066667
0.3133333
0.32
0.3266667
0.3333333
0.34
0.3466667
0.3533333
0.36
0.3666667
0.3733333
0.38
0.3866667
0.3933333
0.4
0.4066667
0.4133333
0.42
0.4266667
0.4333333
0.44
0.4466667
0.4533333
0.46
0.4666667
0.4733333
0.48
0.4866667
0.4933333
0.5
0.5066667
0.5133333
0.52
0.5266667
0.5333333
0.54
0.5466667
0.5533333
0.56
0.5666667
0.5733333
0.58
0.5866667
0.5933333
0.6
0.6066667
0.6133333
0.62
0.6266667
0.6333333
0.64
0.6466667
0.6533333
0.66
0.6666667
0.6733333
0.68
0.6866667
0.6933333
0.7
0.7066667
0.7133333
0.72
0.7266667
0.7333333
0.74
0.7466667
0.7533333
0.76
0.7666667
0.7733333
0.78
0.7866667
0.7933333
0.8
0.8066667
0.8133333
0.82
0.8266667
0.8333333
0.84
0.8466667
0.8533333
0.86
0.8666667
0.8733333
0.88
0.8866667
0.8933333
0.9
0.9066667
0.9133333
0.92
0.9266667
0.9333333
0.94
0.9466667
0.9533333
0.96
0.9666667
0.9733333
0.98
0.9866667
0.9933333
1
CELL_DATA 1
SCALARS CurveKind int 1
LOOKUP_TABLE default
1
