# vtk DataFile Version 3.0
Decimate Polyline open curve for ParaView and iGameVis
ASCII
DATASET POLYDATA
POINTS 31 float
0 0 0
0.5 0.3 0.05
1 0.7 0.1
1.5 0.9 0.12
2 0.8 0.08
2.5 0.4 0
3 0 -0.08
3.5 -0.4 -0.12
4 -0.7 -0.1
4.5 -0.9 -0.04
5 -0.6 0.05
5.5 -0.2 0.12
6 0.2 0.1
6.5 0.7 0.02
7 1 -0.07
7.5 0.8 -0.12
8 0.3 -0.08
8.5 -0.3 0
9 -0.8 0.08
9.5 -1 0.12
10 -0.7 0.08
10.5 -0.2 0
11 0.4 -0.08
11.5 0.9 -0.12
12 1.2 -0.08
12.5 1 0
13 0.5 0.08
13.5 0 0.12
14 -0.3 0.08
14.5 -0.1 0
15 0.4 -0.08
LINES 1 32
31 0 1 2 3 4 5 6 7 8 9 10 11 12 13 14 15 16 17 18 19 20 21 22 23 24 25 26 27 28 29 30
POINT_DATA 31
SCALARS OriginalPointId int 1
LOOKUP_TABLE default
0
1
2
3
4
5
6
7
8
9
10
11
12
13
14
15
16
17
18
19
20
21
22
23
24
25
26
27
28
29
30
CELL_DATA 1
SCALARS CurveKind int 1
LOOKUP_TABLE default
1
